<?xml version="1.0" encoding="iso-8859-1"?>
<!-- Generator: Adobe Illustrator 19.0.0, SVG Export Plug-In . SVG Version: 6.00 Build 0)  -->
<svg version="1.1" id="Layer_1" xmlns="http://www.w3.org/2000/svg" xmlns:xlink="http://www.w3.org/1999/xlink" x="0px" y="0px"
	 viewBox="0 0 473.677 473.677" style="enable-background:new 0 0 473.677 473.677;" xml:space="preserve">
<path style="fill:#357180;" d="M0,236.84C0,106.026,106.036,0.002,236.835,0.002c130.807,0,236.842,106.028,236.842,236.838
	c0,130.795-106.036,236.835-236.842,236.835C106.039,473.671,0,367.636,0,236.84z"/>
<path style="fill:#FFFFFF;" d="M354.254,241.698c-0.505-5.793-3.983-9.558-8.384-11.23c-4.364-2.176-9.682-2.12-14.3,1.702
	c-0.625,0.452-1.197,0.961-1.735,1.522c-5.602,5.602-11.204,11.208-16.806,16.809c-19.966-19.966-39.935-39.931-59.9-59.9
	c-4.947-4.947-10.59-6.612-15.916-6.051c-4.701,0.071-9.536,1.911-13.836,6.211c-8.422,8.418-16.843,16.839-25.265,25.257
	c-17.168-17.165-34.337-34.333-51.501-51.501c-19.173-19.169-48.813,10.691-29.595,29.913
	c22.101,22.097,44.198,44.194,66.299,66.295c4.944,4.944,10.583,6.612,15.901,6.054c4.704-0.071,9.547-1.907,13.851-6.211
	c8.425-8.422,16.843-16.839,25.265-25.261c14.984,14.984,29.965,29.965,44.95,44.946c-5.826,5.826-11.649,11.649-17.475,17.475
	c-8.564,8.564-2.262,23.892,9.869,23.892c21.532,0,43.065,0,64.594,0c7.603,0,14.128-6.249,14.128-13.926
	c0-21.458,0-42.915,0-64.373C354.384,242.775,354.336,242.236,354.254,241.698z"/>
<g>
</g>
<g>
</g>
<g>
</g>
<g>
</g>
<g>
</g>
<g>
</g>
<g>
</g>
<g>
</g>
<g>
</g>
<g>
</g>
<g>
</g>
<g>
</g>
<g>
</g>
<g>
</g>
<g>
</g>
</svg>
